<svg xmlns="http://www.w3.org/2000/svg" xmlns:xlink="http://www.w3.org/1999/xlink" width="500" zoomAndPan="magnify" viewBox="0 0 375 374.999991" height="500" preserveAspectRatio="xMidYMid meet" version="1.0"><defs><g/><clipPath id="7744087af6"><path d="M 138 112.5 L 161 112.5 L 161 174 L 138 174 Z M 138 112.5 " clip-rule="nonzero"/></clipPath><clipPath id="1c1a0819e7"><path d="M 214 112.5 L 237 112.5 L 237 174 L 214 174 Z M 214 112.5 " clip-rule="nonzero"/></clipPath><clipPath id="5b85f583d7"><path d="M 112.5 144 L 262.5 144 L 262.5 262.5 L 112.5 262.5 Z M 112.5 144 " clip-rule="nonzero"/></clipPath><clipPath id="3469ecbffb"><path d="M 136.027344 112.5 L 160.890625 112.5 L 160.890625 173.304688 L 136.027344 173.304688 Z M 136.027344 112.5 " clip-rule="nonzero"/></clipPath><clipPath id="f97885b9cd"><path d="M 141.277344 112.5 L 155.640625 112.5 C 158.542969 112.5 160.890625 114.851562 160.890625 117.75 L 160.890625 167.960938 C 160.890625 170.859375 158.542969 173.210938 155.640625 173.210938 L 141.277344 173.210938 C 138.375 173.210938 136.027344 170.859375 136.027344 167.960938 L 136.027344 117.75 C 136.027344 114.851562 138.375 112.5 141.277344 112.5 Z M 141.277344 112.5 " clip-rule="nonzero"/></clipPath><clipPath id="5330e13361"><path d="M 214.667969 112.5 L 239.535156 112.5 L 239.535156 173.304688 L 214.667969 173.304688 Z M 214.667969 112.5 " clip-rule="nonzero"/></clipPath><clipPath id="664867aa0f"><path d="M 219.917969 112.5 L 234.285156 112.5 C 237.183594 112.5 239.535156 114.851562 239.535156 117.75 L 239.535156 167.960938 C 239.535156 170.859375 237.183594 173.210938 234.285156 173.210938 L 219.917969 173.210938 C 217.019531 173.210938 214.667969 170.859375 214.667969 167.960938 L 214.667969 117.75 C 214.667969 114.851562 217.019531 112.5 219.917969 112.5 Z M 219.917969 112.5 " clip-rule="nonzero"/></clipPath><clipPath id="31dc65063b"><path d="M 161.921875 120.757812 L 212.921875 120.757812 L 212.921875 173.257812 L 161.921875 173.257812 Z M 161.921875 120.757812 " clip-rule="nonzero"/></clipPath></defs><path fill="#ffffff" d="M 131.648438 159.824219 L 131.648438 125.816406 C 127.933594 127.132812 125.265625 130.679688 125.265625 134.839844 L 125.265625 150.796875 C 125.265625 154.957031 127.933594 158.507812 131.648438 159.824219 Z M 131.648438 159.824219 " fill-opacity="1" fill-rule="nonzero"/><g clip-path="url(#7744087af6)"><path fill="#ffffff" d="M 144.414062 173.136719 L 153.988281 173.136719 C 157.507812 173.136719 160.371094 170.273438 160.371094 166.753906 L 160.371094 118.882812 C 160.371094 115.363281 157.507812 112.5 153.988281 112.5 L 144.414062 112.5 C 140.894531 112.5 138.03125 115.363281 138.03125 118.882812 L 138.03125 166.753906 C 138.03125 170.273438 140.894531 173.136719 144.414062 173.136719 Z M 144.414062 173.136719 " fill-opacity="1" fill-rule="nonzero"/></g><path fill="#ffffff" d="M 249.734375 150.796875 L 249.734375 134.839844 C 249.734375 130.679688 247.066406 127.132812 243.351562 125.816406 L 243.351562 159.824219 C 247.066406 158.507812 249.734375 154.957031 249.734375 150.796875 Z M 249.734375 150.796875 " fill-opacity="1" fill-rule="nonzero"/><g clip-path="url(#1c1a0819e7)"><path fill="#ffffff" d="M 221.011719 173.136719 L 230.585938 173.136719 C 234.105469 173.136719 236.96875 170.273438 236.96875 166.753906 L 236.96875 118.882812 C 236.96875 115.363281 234.105469 112.5 230.585938 112.5 L 221.011719 112.5 C 217.492188 112.5 214.628906 115.363281 214.628906 118.882812 L 214.628906 166.753906 C 214.628906 170.273438 217.492188 173.136719 221.011719 173.136719 Z M 221.011719 173.136719 " fill-opacity="1" fill-rule="nonzero"/></g><path fill="#ffffff" d="M 146.015625 233.847656 C 169.664062 255.035156 205.34375 255.027344 228.984375 233.847656 C 225.742188 231.785156 221.613281 231.894531 218.464844 234 C 199.847656 246.449219 175.222656 246.5 156.535156 234 C 153.390625 231.902344 149.261719 231.78125 146.015625 233.847656 Z M 146.015625 233.847656 " fill-opacity="1" fill-rule="nonzero"/><g clip-path="url(#5b85f583d7)"><path fill="#ffffff" d="M 187.5 262.5 C 228.855469 262.5 262.5 228.855469 262.5 187.5 L 262.5 150.796875 C 262.5 147.277344 259.636719 144.414062 256.117188 144.414062 C 256.117188 150.644531 256.117188 181.929688 256.117188 187.5 C 256.117188 225.421875 225.429688 256.117188 187.5 256.117188 C 149.578125 256.117188 118.882812 225.429688 118.882812 187.5 C 118.882812 181.207031 118.882812 149.890625 118.882812 144.414062 C 115.363281 144.414062 112.5 147.277344 112.5 150.796875 L 112.5 187.5 C 112.5 228.855469 146.144531 262.5 187.5 262.5 Z M 187.5 262.5 " fill-opacity="1" fill-rule="nonzero"/></g><g clip-path="url(#3469ecbffb)"><g clip-path="url(#f97885b9cd)"><path fill="#5e17eb" d="M 136.027344 112.5 L 160.890625 112.5 L 160.890625 173.207031 L 136.027344 173.207031 Z M 136.027344 112.5 " fill-opacity="1" fill-rule="nonzero"/></g></g><g clip-path="url(#5330e13361)"><g clip-path="url(#664867aa0f)"><path fill="#5e17eb" d="M 214.667969 112.5 L 239.535156 112.5 L 239.535156 173.207031 L 214.667969 173.207031 Z M 214.667969 112.5 " fill-opacity="1" fill-rule="nonzero"/></g></g><g clip-path="url(#31dc65063b)"><path fill="#5e17eb" d="M 212.429688 148.421875 C 211.726562 150.921875 211.019531 153.351562 210.316406 155.851562 C 208.90625 157.960938 207.433594 160.074219 206.027344 162.1875 C 204.042969 163.722656 202.121094 165.195312 200.136719 166.734375 C 197.832031 167.566406 195.527344 168.460938 193.222656 169.292969 C 190.789062 169.421875 188.421875 169.488281 185.988281 169.613281 C 183.683594 168.972656 181.378906 168.335938 179.074219 167.695312 C 177.089844 166.414062 175.167969 165.199219 173.183594 163.917969 C 171.710938 162.1875 170.175781 160.394531 168.703125 158.667969 C 167.804688 156.554688 166.910156 154.507812 166.011719 152.394531 C 165.757812 150.21875 165.566406 147.976562 165.308594 145.800781 C 165.691406 143.621094 166.078125 141.507812 166.460938 139.332031 C 167.421875 137.414062 168.445312 135.492188 169.40625 133.570312 C 170.878906 132.035156 172.289062 130.5 173.757812 128.960938 C 175.550781 127.9375 177.28125 126.847656 179.074219 125.824219 C 181.058594 125.3125 182.976562 124.800781 184.964844 124.289062 C 186.949219 124.289062 188.996094 124.351562 190.980469 124.351562 C 192.835938 124.929688 194.757812 125.503906 196.613281 126.082031 C 198.214844 127.105469 199.878906 128.128906 201.480469 129.15625 C 202.761719 130.5 204.042969 131.90625 205.320312 133.25 C 206.152344 134.917969 207.050781 136.515625 207.882812 138.179688 C 208.265625 139.910156 208.714844 141.703125 209.097656 143.429688 C 209.035156 145.160156 209.035156 146.953125 208.972656 148.679688 C 208.523438 150.34375 208.011719 152.011719 207.5625 153.675781 C 206.730469 155.148438 205.898438 156.621094 205.066406 158.09375 C 203.914062 159.308594 202.824219 160.460938 201.671875 161.675781 C 200.328125 162.574219 198.984375 163.40625 197.640625 164.300781 C 196.167969 164.8125 194.695312 165.390625 193.222656 165.902344 C 191.6875 166.09375 190.148438 166.222656 188.613281 166.414062 C 187.140625 166.222656 185.667969 166.09375 184.195312 165.902344 C 182.785156 165.453125 181.441406 164.941406 180.035156 164.492188 C 178.816406 163.789062 177.601562 163.148438 176.449219 162.253906 C 175.359375 161.421875 174.398438 160.523438 173.503906 159.5 C 172.605469 158.410156 171.839844 157.386719 171.136719 156.234375 C 169.789062 153.996094 169.023438 151.625 168.703125 149 C 168.445312 146.566406 168.574219 144.261719 169.152344 141.832031 C 169.726562 139.589844 170.625 137.734375 171.902344 135.75 C 173.121094 133.957031 174.398438 132.546875 176.191406 131.203125 C 177.792969 129.984375 179.394531 129.089844 181.25 128.449219 C 186.5 126.65625 192.199219 127.042969 197.128906 129.984375 C 199.175781 131.203125 200.777344 132.609375 202.25 134.46875 C 204.042969 136.835938 205.257812 139.398438 205.773438 142.34375 C 205.773438 142.472656 205.835938 142.535156 205.898438 142.597656 C 205.195312 137.988281 202.636719 133.636719 198.921875 130.820312 C 199.113281 130.820312 199.242188 130.945312 199.371094 131.074219 C 200.90625 132.355469 202.121094 133.636719 203.273438 135.300781 C 205.835938 139.140625 206.859375 143.429688 206.285156 147.910156 C 206.027344 149.769531 205.515625 151.433594 204.746094 153.160156 C 203.914062 154.953125 202.890625 156.621094 201.484375 158.089844 C 200.714844 158.796875 200.011719 159.5 199.175781 160.140625 C 197.449219 161.355469 195.71875 162.253906 193.734375 162.894531 C 192.710938 163.148438 191.75 163.339844 190.726562 163.535156 C 188.679688 163.789062 186.695312 163.597656 184.582031 163.148438 C 182.46875 162.699219 180.738281 161.933594 178.882812 160.714844 C 177.027344 159.5 175.683594 158.15625 174.402344 156.300781 C 173.183594 154.441406 172.351562 152.648438 171.777344 150.539062 C 171.265625 148.425781 171.136719 146.441406 171.519531 144.199219 C 171.710938 143.109375 171.96875 142.085938 172.289062 141.0625 C 172.992188 139.011719 174.015625 137.285156 175.488281 135.621094 C 176.960938 134.019531 178.5625 132.738281 180.546875 131.777344 C 182.46875 130.882812 184.453125 130.371094 186.628906 130.179688 C 188.742188 130.050781 190.789062 130.308594 192.839844 131.074219 C 193.800781 131.394531 194.695312 131.84375 195.65625 132.355469 C 197.449219 133.378906 198.855469 134.660156 200.136719 136.386719 C 200.714844 137.21875 201.226562 138.054688 201.738281 138.949219 C 202.636719 140.742188 203.082031 142.664062 203.210938 144.710938 C 203.339844 147.527344 202.761719 150.28125 201.289062 152.90625 C 199.945312 155.339844 198.152344 157.257812 195.65625 158.601562 C 193.351562 159.820312 190.984375 160.460938 188.359375 160.460938 C 185.988281 160.394531 183.75 159.820312 181.636719 158.667969 C 179.777344 157.578125 178.242188 156.363281 176.960938 154.441406 C 175.234375 151.816406 174.335938 149.0625 174.53125 146.054688 C 174.59375 143.492188 175.234375 141.058594 176.835938 138.882812 C 177.796875 137.605469 178.753906 136.578125 179.90625 135.617188 C 177.347656 137.347656 175.554688 139.910156 174.65625 142.917969 C 173.695312 146.117188 174.015625 149.449219 175.363281 152.457031 C 176.578125 155.019531 178.304688 157.128906 180.804688 158.730469 C 182.914062 160.074219 185.15625 160.78125 187.652344 160.972656 C 189.445312 161.101562 191.175781 160.90625 192.96875 160.394531 C 194.761719 159.820312 196.359375 159.050781 197.960938 157.835938 C 199.625 156.554688 200.777344 155.144531 201.867188 153.289062 C 202.953125 151.433594 203.53125 149.449219 203.851562 147.269531 C 204.105469 145.03125 203.851562 142.851562 203.082031 140.613281 C 202.761719 139.523438 202.316406 138.4375 201.675781 137.410156 C 200.523438 135.300781 198.984375 133.632812 196.871094 132.226562 C 195.785156 131.457031 194.695312 130.945312 193.542969 130.496094 C 192.328125 130.050781 191.175781 129.730469 189.894531 129.535156 C 188.550781 129.34375 187.269531 129.410156 185.988281 129.34375 C 184.707031 129.601562 183.363281 129.921875 182.082031 130.175781 C 180.867188 130.753906 179.652344 131.265625 178.433594 132.035156 C 177.28125 132.800781 176.320312 133.699219 175.234375 134.53125 C 174.402344 135.683594 173.570312 136.769531 172.738281 137.925781 C 172.160156 139.269531 171.648438 140.550781 171.070312 141.894531 C 170.816406 143.300781 170.625 144.773438 170.367188 146.183594 C 170.496094 147.65625 170.6875 149.128906 170.816406 150.601562 C 171.328125 152.007812 171.839844 153.417969 172.351562 154.828125 C 173.25 156.105469 174.082031 157.324219 174.976562 158.601562 C 176.128906 159.628906 177.347656 160.589844 178.5 161.613281 C 179.90625 162.316406 181.316406 163.019531 182.722656 163.726562 C 184.324219 164.042969 185.859375 164.300781 187.460938 164.621094 C 189.0625 164.492188 190.664062 164.429688 192.261719 164.300781 C 193.800781 163.789062 195.402344 163.277344 196.9375 162.765625 C 198.34375 161.804688 199.691406 160.910156 201.097656 159.949219 C 202.1875 158.667969 203.339844 157.386719 204.425781 156.105469 C 205.195312 154.570312 205.898438 153.035156 206.667969 151.496094 C 206.988281 149.769531 207.246094 148.105469 207.566406 146.375 C 207.4375 144.644531 207.246094 142.855469 207.117188 141.125 C 206.476562 139.460938 205.835938 137.796875 205.195312 136.132812 C 204.109375 134.660156 203.082031 133.25 201.996094 131.777344 C 200.585938 130.691406 199.113281 129.539062 197.707031 128.449219 C 195.976562 127.746094 194.3125 127.039062 192.582031 126.335938 C 190.726562 126.144531 188.933594 125.890625 187.078125 125.695312 C 185.222656 126.015625 183.363281 126.273438 181.507812 126.59375 C 179.777344 127.359375 178.050781 128.191406 176.320312 128.960938 C 174.847656 130.242188 173.441406 131.457031 171.96875 132.738281 C 170.945312 134.339844 169.855469 136.003906 168.832031 137.605469 C 168.253906 139.460938 167.613281 141.316406 167.039062 143.171875 C 166.972656 145.160156 166.972656 147.144531 166.910156 149.128906 C 167.421875 151.046875 167.871094 152.96875 168.382812 154.890625 C 169.40625 156.617188 170.433594 158.347656 171.457031 160.074219 C 172.929688 161.484375 174.402344 162.828125 175.875 164.238281 C 177.730469 165.199219 179.523438 166.09375 181.378906 167.054688 C 183.363281 167.4375 185.414062 167.886719 187.398438 168.269531 C 189.445312 168.078125 191.558594 167.949219 193.609375 167.757812 C 195.59375 166.992188 197.511719 166.285156 199.496094 165.515625 C 201.164062 164.238281 202.890625 162.957031 204.554688 161.675781 C 205.835938 159.949219 207.117188 158.28125 208.398438 156.554688 C 209.164062 154.570312 209.871094 152.519531 210.636719 150.535156 C 210.828125 148.359375 210.957031 146.246094 211.148438 144.070312 C 210.703125 141.957031 210.253906 139.84375 209.804688 137.730469 C 208.78125 135.8125 207.820312 133.828125 206.796875 131.90625 C 205.261719 130.304688 203.722656 128.769531 202.1875 127.167969 C 200.265625 126.078125 198.347656 124.925781 196.425781 123.839844 C 194.25 123.261719 192.136719 122.75 189.960938 122.175781 C 187.71875 122.304688 185.476562 122.367188 183.238281 122.496094 C 181.058594 123.199219 178.945312 123.902344 176.769531 124.605469 C 174.914062 125.886719 172.992188 127.167969 171.136719 128.449219 C 169.664062 130.242188 168.253906 131.96875 166.78125 133.761719 C 165.886719 135.875 164.988281 137.988281 164.09375 140.101562 C 163.773438 142.40625 163.519531 144.644531 163.199219 146.949219 C 163.519531 149.253906 163.902344 151.558594 164.222656 153.863281 C 165.183594 155.976562 166.207031 158.089844 167.167969 160.203125 C 168.703125 161.996094 170.238281 163.789062 171.777344 165.582031 C 173.761719 166.859375 175.746094 168.140625 177.730469 169.421875 C 179.972656 170.125 182.277344 170.832031 184.515625 171.535156 C 186.886719 171.597656 189.320312 171.664062 191.6875 171.726562 C 193.734375 171.214844 195.847656 170.703125 197.898438 170.191406 C 199.753906 169.230469 201.546875 168.269531 203.402344 167.308594 C 204.8125 166.09375 206.285156 164.8125 207.691406 163.59375 C 209.484375 161.484375 211.085938 159.304688 212.300781 156.746094 C 212.558594 156.105469 212.941406 155.59375 213.070312 154.890625 C 212.8125 155.59375 212.558594 156.234375 212.238281 156.9375 C 211.535156 158.21875 210.828125 159.371094 210.125 160.585938 C 208.84375 162.058594 207.628906 163.46875 206.347656 164.941406 C 204.554688 166.222656 202.761719 167.566406 200.96875 168.847656 C 198.792969 169.679688 196.554688 170.445312 194.375 171.277344 C 190.917969 171.34375 187.527344 171.46875 184.132812 171.535156 C 180.996094 170.316406 177.921875 169.101562 174.785156 167.886719 C 172.417969 165.582031 169.984375 163.339844 167.617188 161.035156 C 166.335938 158.089844 164.992188 155.082031 163.710938 152.136719 C 163.582031 149 163.519531 145.796875 163.390625 142.660156 C 164.476562 139.714844 165.503906 136.769531 166.589844 133.824219 C 168.640625 131.519531 170.625 129.28125 172.671875 126.976562 C 175.363281 125.632812 177.988281 124.285156 180.675781 122.941406 C 183.621094 122.621094 186.5 122.300781 189.445312 121.980469 C 192.261719 122.75 195.015625 123.453125 197.832031 124.222656 C 200.136719 125.886719 202.378906 127.488281 204.683594 129.152344 C 206.21875 131.457031 207.820312 133.699219 209.355469 136.003906 C 209.996094 138.628906 210.703125 141.1875 211.339844 143.8125 C 211.085938 146.4375 210.828125 149.0625 210.574219 151.6875 C 209.484375 154.058594 208.398438 156.363281 207.308594 158.730469 C 205.578125 160.523438 203.789062 162.316406 202.058594 164.109375 C 199.882812 165.261719 197.640625 166.351562 195.464844 167.503906 C 193.097656 167.824219 190.726562 168.207031 188.359375 168.527344 C 186.054688 168.140625 183.75 167.757812 181.445312 167.375 C 179.394531 166.351562 177.410156 165.261719 175.363281 164.238281 C 173.824219 162.636719 172.226562 161.097656 170.6875 159.5 C 169.664062 157.578125 168.703125 155.65625 167.679688 153.738281 C 167.296875 151.6875 166.847656 149.640625 166.464844 147.589844 C 166.65625 145.542969 166.847656 143.558594 167.039062 141.507812 C 167.808594 139.652344 168.511719 137.859375 169.28125 136.003906 C 170.433594 134.46875 171.585938 132.929688 172.738281 131.394531 C 174.210938 130.242188 175.746094 129.152344 177.21875 128 C 178.882812 127.296875 180.546875 126.65625 182.214844 125.953125 C 183.941406 125.761719 185.605469 125.503906 187.335938 125.3125 C 189 125.503906 190.664062 125.632812 192.328125 125.824219 C 193.863281 126.398438 195.402344 126.910156 196.9375 127.488281 C 198.21875 128.320312 199.5 129.214844 200.78125 130.050781 C 201.804688 131.136719 202.890625 132.226562 203.917969 133.3125 C 204.683594 134.53125 205.453125 135.746094 206.09375 137.027344 C 207.308594 139.460938 207.949219 142.085938 208.015625 144.839844 C 208.078125 146.054688 207.949219 147.269531 207.820312 148.550781 C 207.5 150.855469 206.796875 152.90625 205.710938 155.019531 C 204.492188 157.257812 203.085938 159.117188 201.035156 160.714844 C 199.820312 161.675781 198.667969 162.378906 197.449219 163.148438 C 195.976562 163.660156 194.441406 164.238281 192.96875 164.75 C 191.175781 164.941406 189.320312 165.070312 187.527344 165.261719 C 185.480469 164.8125 183.496094 164.300781 181.445312 163.851562 C 179.84375 162.890625 178.179688 161.933594 176.582031 160.972656 C 175.234375 159.433594 173.890625 157.898438 172.546875 156.363281 C 171.714844 154.378906 170.945312 152.390625 170.113281 150.40625 C 170.050781 148.167969 170.050781 145.988281 169.984375 143.75 C 170.753906 141.574219 171.585938 139.394531 172.355469 137.21875 C 173.957031 135.492188 175.554688 133.699219 177.15625 131.96875 C 179.398438 131.007812 181.574219 129.984375 183.816406 129.023438 C 186.246094 129.023438 188.679688 128.960938 191.113281 128.960938 C 193.355469 129.984375 195.59375 130.945312 197.835938 131.96875 C 199.4375 133.824219 201.035156 135.683594 202.636719 137.539062 C 203.339844 139.84375 203.980469 142.214844 204.6875 144.519531 C 204.300781 146.886719 203.917969 149.191406 203.535156 151.5625 C 202.191406 153.546875 200.84375 155.53125 199.5 157.515625 C 197.453125 158.730469 195.46875 159.882812 193.417969 161.101562 C 191.113281 161.292969 188.808594 161.484375 186.503906 161.675781 C 184.390625 160.910156 182.214844 160.074219 180.101562 159.308594 C 178.503906 157.707031 176.964844 156.042969 175.363281 154.441406 C 174.660156 152.328125 173.957031 150.28125 173.253906 148.167969 C 173.507812 145.992188 173.828125 143.816406 174.085938 141.640625 C 175.238281 139.847656 176.324219 138.054688 177.476562 136.261719 C 179.269531 135.109375 181.0625 134.019531 182.855469 132.867188 C 184.90625 132.609375 186.953125 132.417969 189.003906 132.164062 C 190.921875 132.804688 192.84375 133.445312 194.765625 134.085938 C 196.171875 135.492188 197.644531 136.902344 199.054688 138.308594 C 199.757812 140.167969 200.398438 141.957031 201.101562 143.816406 C 200.910156 145.734375 200.78125 147.65625 200.589844 149.578125 C 199.628906 151.175781 198.671875 152.84375 197.710938 154.441406 C 196.171875 155.464844 194.636719 156.492188 193.101562 157.515625 C 191.308594 157.773438 189.449219 158.09375 187.660156 158.347656 C 185.929688 157.835938 184.265625 157.257812 182.535156 156.746094 C 181.257812 155.53125 179.976562 154.378906 178.695312 153.164062 C 178.054688 151.5625 177.480469 150.023438 176.839844 148.425781 C 176.96875 146.761719 177.03125 145.09375 177.160156 143.429688 C 177.925781 142.023438 178.757812 140.550781 179.527344 139.140625 C 180.871094 138.246094 182.152344 137.285156 183.496094 136.386719 C 185.035156 136.132812 186.570312 135.8125 188.105469 135.554688 C 189.578125 136.003906 191.050781 136.386719 192.523438 136.835938 C 193.613281 137.796875 194.765625 138.820312 195.851562 139.78125 C 196.429688 141.125 197.003906 142.40625 197.582031 143.75 C 197.519531 145.160156 197.453125 146.632812 197.390625 148.039062 C 196.75 149.257812 196.109375 150.472656 195.46875 151.691406 C 194.382812 152.457031 193.355469 153.289062 192.269531 154.058594 C 190.988281 154.3125 189.773438 154.570312 188.492188 154.828125 C 187.273438 154.507812 185.996094 154.25 184.777344 153.929688 C 183.816406 153.160156 182.921875 152.394531 181.960938 151.625 C 181.449219 150.535156 180.9375 149.511719 180.425781 148.425781 C 180.425781 147.273438 180.359375 146.183594 180.359375 145.03125 C 180.808594 144.007812 181.320312 142.980469 181.769531 141.957031 C 182.601562 141.253906 183.371094 140.613281 184.203125 139.910156 C 185.164062 139.652344 186.1875 139.332031 187.148438 139.078125 C 188.105469 139.269531 189.132812 139.398438 190.089844 139.589844 C 190.859375 140.101562 191.691406 140.675781 192.460938 141.1875 C 192.90625 141.957031 193.421875 142.789062 193.867188 143.558594 C 193.996094 144.390625 194.058594 145.285156 194.1875 146.117188 C 193.933594 146.949219 193.675781 147.71875 193.421875 148.550781 C 192.84375 149.128906 192.332031 149.703125 191.757812 150.28125 C 191.050781 150.601562 190.410156 150.855469 189.707031 151.175781 C 189.003906 151.175781 188.234375 151.304688 187.53125 151.113281 C 186.890625 150.984375 186.25 150.726562 185.675781 150.34375 C 184.648438 149.640625 184.007812 148.613281 183.816406 147.207031 C 183.6875 146.117188 183.816406 145.03125 184.648438 144.070312 C 185.546875 143.046875 186.761719 142.40625 188.300781 142.789062 C 189.261719 143.046875 190.09375 143.75 190.410156 144.773438 C 190.667969 145.671875 190.347656 146.949219 189.324219 147.207031 L 189.257812 147.140625 C 189.257812 147.078125 189.257812 146.949219 189.324219 146.886719 C 189.835938 146.246094 189.898438 145.351562 189.324219 144.644531 C 188.492188 143.683594 187.019531 143.558594 185.929688 144.582031 C 184.714844 145.796875 184.90625 147.65625 186.1875 148.871094 C 186.828125 149.449219 187.660156 149.703125 188.554688 149.769531 C 189.386719 149.769531 190.21875 149.449219 190.988281 148.871094 C 192.140625 147.910156 192.652344 146.566406 192.394531 145.03125 C 192.203125 143.429688 191.179688 142.085938 189.578125 141.316406 C 188.492188 140.867188 187.402344 140.804688 186.121094 141.125 C 184.90625 141.445312 183.878906 142.148438 183.175781 143.367188 C 182.792969 143.941406 182.535156 144.582031 182.34375 145.222656 C 181.960938 146.566406 182.152344 147.910156 182.855469 149.320312 C 183.175781 149.960938 183.625 150.597656 184.199219 151.046875 C 184.777344 151.625 185.417969 152.007812 186.121094 152.265625 C 186.824219 152.585938 187.59375 152.710938 188.363281 152.710938 C 189.195312 152.777344 189.960938 152.585938 190.792969 152.457031 C 191.5 152.070312 192.265625 151.625 192.972656 151.238281 C 193.546875 150.597656 194.058594 149.894531 194.636719 149.253906 C 194.957031 148.421875 195.210938 147.589844 195.53125 146.757812 C 195.53125 145.863281 195.46875 144.964844 195.46875 144.070312 C 195.148438 143.238281 194.765625 142.339844 194.445312 141.507812 C 193.804688 140.804688 193.164062 140.101562 192.523438 139.394531 C 191.628906 138.949219 190.792969 138.5 189.898438 138.050781 C 188.875 137.988281 187.914062 137.859375 186.890625 137.796875 C 185.929688 138.050781 184.90625 138.308594 183.945312 138.5625 C 183.113281 139.203125 182.214844 139.78125 181.382812 140.421875 C 180.808594 141.316406 180.230469 142.214844 179.65625 143.109375 C 179.398438 144.195312 179.207031 145.222656 178.949219 146.308594 C 179.144531 147.398438 179.269531 148.550781 179.464844 149.636719 C 180.039062 150.597656 180.550781 151.625 181.128906 152.582031 C 182.023438 153.351562 182.921875 154.054688 183.816406 154.824219 C 184.90625 155.207031 186.058594 155.59375 187.144531 155.976562 C 188.363281 155.914062 189.515625 155.914062 190.730469 155.847656 C 191.882812 155.402344 192.972656 154.886719 194.125 154.441406 C 195.085938 153.542969 195.980469 152.648438 196.941406 151.75 C 197.453125 150.597656 198.027344 149.382812 198.542969 148.230469 C 198.605469 146.886719 198.734375 145.542969 198.796875 144.195312 C 198.414062 142.917969 197.964844 141.636719 197.582031 140.355469 C 196.683594 139.265625 195.851562 138.242188 194.957031 137.15625 C 193.738281 136.449219 192.523438 135.746094 191.304688 135.042969 C 189.898438 134.851562 188.425781 134.660156 187.015625 134.464844 C 185.609375 134.785156 184.199219 135.171875 182.789062 135.492188 C 181.574219 136.324219 180.359375 137.15625 179.140625 137.988281 C 178.308594 139.265625 177.414062 140.484375 176.582031 141.765625 C 176.261719 143.300781 175.941406 144.773438 175.621094 146.308594 C 175.875 147.847656 176.132812 149.449219 176.386719 150.984375 C 177.21875 152.328125 178.050781 153.738281 178.882812 155.082031 C 180.164062 156.042969 181.511719 157.066406 182.789062 158.027344 C 184.390625 158.472656 185.992188 158.921875 187.59375 159.371094 C 189.257812 159.179688 190.984375 158.984375 192.648438 158.792969 C 194.1875 157.960938 195.660156 157.128906 197.195312 156.296875 C 198.347656 154.953125 199.4375 153.542969 200.589844 152.199219 C 201.101562 150.472656 201.613281 148.804688 202.125 147.078125 C 201.996094 145.222656 201.804688 143.429688 201.675781 141.570312 C 200.84375 139.90625 199.949219 138.308594 199.117188 136.640625 C 197.644531 135.425781 196.234375 134.144531 194.761719 132.929688 C 192.90625 132.351562 191.050781 131.777344 189.191406 131.199219 C 187.207031 131.390625 185.289062 131.519531 183.304688 131.710938 C 181.511719 132.609375 179.78125 133.570312 177.988281 134.464844 C 176.707031 136.066406 175.363281 137.601562 174.082031 139.203125 C 173.507812 141.1875 172.867188 143.234375 172.289062 145.21875 C 172.546875 147.332031 172.738281 149.445312 172.996094 151.558594 C 174.082031 153.414062 175.105469 155.335938 176.195312 157.191406 C 177.925781 158.535156 179.714844 159.816406 181.445312 161.164062 C 183.621094 161.675781 185.796875 162.25 187.976562 162.761719 C 190.34375 162.316406 192.710938 161.929688 195.082031 161.484375 C 197.066406 160.074219 199.113281 158.664062 201.097656 157.257812 C 202.316406 155.082031 203.597656 152.902344 204.8125 150.726562 C 205.003906 148.164062 205.261719 145.667969 205.453125 143.109375 C 204.554688 140.675781 203.660156 138.304688 202.765625 135.875 C 200.90625 134.082031 198.988281 132.222656 197.128906 130.433594 C 194.632812 129.535156 192.136719 128.703125 189.640625 127.808594 C 186.949219 128.0625 184.324219 128.382812 181.636719 128.640625 C 179.332031 130.046875 176.964844 131.457031 174.660156 132.863281 C 173.121094 135.167969 171.648438 137.410156 170.113281 139.714844 C 169.726562 142.46875 169.28125 145.15625 168.894531 147.910156 C 169.664062 150.597656 170.433594 153.289062 171.199219 155.976562 C 173.058594 158.089844 174.914062 160.203125 176.769531 162.3125 C 179.332031 163.464844 181.957031 164.617188 184.515625 165.773438 C 187.335938 165.773438 190.214844 165.707031 193.03125 165.707031 C 195.144531 165.195312 197.128906 164.492188 199.113281 163.273438 C 200.136719 162.570312 200.96875 161.929688 201.929688 161.164062 C 203.851562 159.496094 205.390625 157.703125 206.539062 155.402344 C 207.117188 154.183594 207.628906 153.03125 208.011719 151.75 C 208.460938 150.40625 208.71875 149.125 208.84375 147.78125 C 208.972656 146.371094 208.972656 144.964844 208.84375 143.554688 C 208.71875 142.082031 208.332031 140.675781 208.078125 139.265625 C 207.5 137.859375 206.859375 136.511719 206.285156 135.105469 C 205.386719 133.886719 204.429688 132.609375 203.53125 131.390625 C 202.378906 130.304688 201.164062 129.277344 200.011719 128.191406 C 198.539062 127.421875 197.128906 126.652344 195.65625 125.886719 C 194.058594 125.4375 192.390625 124.988281 190.792969 124.542969 C 189.0625 124.476562 187.398438 124.414062 185.667969 124.347656 C 183.941406 124.734375 182.210938 125.054688 180.484375 125.4375 C 178.882812 126.207031 177.21875 127.039062 175.617188 127.804688 C 174.210938 129.023438 172.800781 130.175781 171.394531 131.390625 C 170.304688 132.925781 169.152344 134.464844 168.0625 136 C 167.359375 137.792969 166.71875 139.585938 166.015625 141.378906 C 165.824219 143.300781 165.632812 145.285156 165.4375 147.203125 C 165.757812 149.1875 166.078125 151.109375 166.398438 153.09375 C 167.230469 154.953125 168 156.742188 168.832031 158.601562 C 170.113281 160.199219 171.457031 161.800781 172.738281 163.402344 C 174.464844 164.617188 176.132812 165.769531 177.859375 166.988281 C 179.84375 167.691406 181.828125 168.394531 183.8125 169.101562 C 185.925781 169.226562 188.039062 169.421875 190.152344 169.546875 C 192.265625 169.101562 194.3125 168.714844 196.425781 168.269531 C 198.347656 167.308594 200.265625 166.28125 202.1875 165.324219 C 203.789062 163.851562 205.390625 162.3125 206.988281 160.839844 C 208.140625 158.984375 209.292969 157.128906 210.445312 155.269531 C 211.023438 153.160156 211.664062 151.046875 212.238281 148.933594 C 212.238281 146.691406 212.238281 144.515625 212.238281 142.273438 C 211.664062 140.164062 211.085938 138.050781 210.511719 135.9375 C 209.359375 134.015625 208.269531 132.160156 207.117188 130.238281 C 205.519531 128.703125 203.917969 127.230469 202.316406 125.695312 C 200.394531 124.605469 198.476562 123.582031 196.554688 122.492188 C 194.441406 121.980469 192.265625 121.46875 190.152344 120.957031 C 187.976562 121.019531 185.800781 121.085938 183.621094 121.148438 C 181.574219 121.726562 179.460938 122.363281 177.410156 122.941406 C 175.554688 124.03125 173.761719 125.117188 171.90625 126.207031 C 170.433594 127.679688 168.898438 129.214844 167.425781 130.6875 C 166.335938 132.480469 165.3125 134.273438 164.222656 136.066406 C 163.582031 138.050781 163.007812 139.972656 162.367188 141.957031 C 162.238281 144.003906 162.109375 145.988281 161.984375 148.039062 C 162.304688 150.023438 162.6875 152.007812 163.007812 153.992188 C 163.773438 155.785156 164.542969 157.578125 165.3125 159.371094 C 166.402344 160.972656 167.554688 162.507812 168.640625 164.109375 C 170.050781 165.386719 171.394531 166.605469 172.800781 167.886719 C 174.402344 168.847656 175.941406 169.742188 177.539062 170.703125 C 179.269531 171.277344 180.933594 171.789062 182.664062 172.367188 C 184.519531 172.625 186.4375 172.816406 188.296875 173.070312 C 189.960938 172.941406 191.625 172.941406 193.355469 172.625 C 196.105469 172.175781 198.605469 171.34375 201.164062 169.996094 C 202.894531 169.101562 204.496094 168.140625 206.03125 166.796875 C 207.3125 165.644531 208.527344 164.554688 209.550781 163.277344 C 205.582031 168.015625 200.269531 171.277344 193.929688 172.558594 C 191.367188 173.070312 189 173.199219 186.4375 173.007812 C 183.6875 172.816406 180.996094 172.238281 178.371094 171.085938 C 175.554688 169.871094 173.058594 168.398438 170.691406 166.285156 C 169.539062 165.132812 168.511719 164.109375 167.554688 162.828125 C 166.527344 161.484375 165.761719 160.140625 164.863281 158.792969 C 164.222656 157.257812 163.648438 155.785156 163.007812 154.25 C 162.6875 152.648438 162.238281 151.046875 162.109375 149.382812 C 161.917969 147.71875 161.984375 146.054688 161.984375 144.390625 C 162.304688 142.726562 162.558594 141.125 162.878906 139.460938 C 163.519531 137.859375 164.097656 136.324219 164.734375 134.722656 C 165.632812 133.3125 166.464844 131.90625 167.554688 130.5625 C 168.578125 129.214844 169.730469 128.128906 170.882812 126.910156 C 172.226562 125.949219 173.507812 124.992188 174.980469 124.160156 C 176.453125 123.328125 177.859375 122.6875 179.398438 122.175781 C 180.933594 121.597656 182.535156 121.339844 184.070312 120.957031 C 185.605469 120.894531 187.207031 120.765625 188.742188 120.828125 C 190.28125 120.894531 191.753906 121.085938 193.289062 121.46875 C 196.234375 122.109375 198.667969 123.132812 201.292969 124.796875 C 203.660156 126.335938 205.453125 128 207.246094 130.238281 C 209.550781 133.183594 211.023438 136.195312 211.921875 139.84375 C 212.621094 142.726562 212.683594 145.542969 212.429688 148.421875 Z M 212.429688 148.421875 " fill-opacity="1" fill-rule="nonzero"/></g><g fill="#ffffff" fill-opacity="1"><g transform="translate(134.000945, 206.438976)"><g><path d="M 8.015625 8.0625 L 16.015625 -6.90625 L 15.9375 -7 C 13.71875 -4.539062 12.21875 -2.921875 11.4375 -2.140625 L 4.609375 4.640625 L 1.84375 1.84375 L 16.53125 -12.75 L 20.734375 -8.515625 L 12.953125 6.125 L 13.015625 6.1875 L 27.921875 -1.28125 L 32.125 2.953125 L 17.4375 17.546875 L 14.546875 14.640625 L 21.5 7.734375 C 21.832031 7.398438 22.21875 7.023438 22.65625 6.609375 C 23.09375 6.203125 24.273438 5.117188 26.203125 3.359375 L 26.109375 3.265625 L 10.84375 10.921875 Z M 8.015625 8.0625 "/></g></g></g><g fill="#ffffff" fill-opacity="1"><g transform="translate(157.89349, 227.603784)"><g><path d="M 12.6875 -8.3125 L 19.6875 -14.84375 L 24.109375 -13.21875 L 13.3125 -3.71875 L 10.546875 3.859375 L 6.453125 2.359375 L 9.171875 -5.078125 L 7.125 -19.4375 L 11.59375 -17.796875 Z M 12.6875 -8.3125 "/></g></g></g><g fill="#ffffff" fill-opacity="1"><g transform="translate(177.572027, 233.783832)"><g/></g></g><g fill="#ffffff" fill-opacity="1"><g transform="translate(188.781043, 235.991035)"><g><path d="M 11.078125 -2.609375 L 2.5 -17.265625 L 2.375 -17.234375 C 3.300781 -14.066406 3.894531 -11.945312 4.15625 -10.875 L 6.359375 -1.5 L 2.546875 -0.59375 L -2.203125 -20.75 L 3.59375 -22.125 L 12 -7.84375 L 12.078125 -7.859375 L 13.515625 -24.453125 L 19.328125 -25.828125 L 24.078125 -5.671875 L 20.09375 -4.734375 L 17.84375 -14.265625 C 17.738281 -14.722656 17.625 -15.25 17.5 -15.84375 C 17.375 -16.4375 17.066406 -18.007812 16.578125 -20.5625 L 16.46875 -20.53125 L 14.984375 -3.53125 Z M 11.078125 -2.609375 "/></g></g></g><g fill="#ffffff" fill-opacity="1"><g transform="translate(218.302168, 226.753529)"><g><path d="M 2.171875 -1.4375 L -9.296875 -18.671875 L -5.640625 -21.109375 L 5.828125 -3.875 Z M 2.171875 -1.4375 "/></g></g></g><g fill="#ffffff" fill-opacity="1"><g transform="translate(228.962018, 219.973441)"><g><path d="M 12.53125 -14.734375 L 9.28125 -10.90625 L 0.21875 -12.328125 L 3.046875 -3.578125 L 0 0 L -3.671875 -12.15625 L -15.484375 -13.75 L -12.34375 -17.4375 L -3.78125 -16.015625 L -6.609375 -24.171875 L -3.546875 -27.765625 L 0.046875 -16.171875 Z M 12.53125 -14.734375 "/></g></g></g></svg>